<svg id="图层_1" data-name="图层 1" xmlns="http://www.w3.org/2000/svg" xmlns:xlink="http://www.w3.org/1999/xlink" viewBox="0 0 595.28 841.89"><defs><style>.cls-1{fill:url(#linear-gradient);}.cls-2{fill:url(#linear-gradient-2);}.cls-3{fill:url(#linear-gradient-3);}.cls-4{fill:url(#linear-gradient-4);}.cls-5{fill:url(#linear-gradient-5);}.cls-6{fill:url(#linear-gradient-6);}.cls-7{fill:url(#linear-gradient-7);}.cls-8{fill:#00125e;}</style><linearGradient id="linear-gradient" x1="123.46" y1="402.97" x2="295.09" y2="402.97" gradientUnits="userSpaceOnUse"><stop offset="0.42" stop-color="#00125e"/><stop offset="0.55" stop-color="#00216f"/><stop offset="0.8" stop-color="#004a99"/><stop offset="0.9" stop-color="#005bac"/></linearGradient><linearGradient id="linear-gradient-2" x1="287.48" y1="403.02" x2="471.82" y2="403.02" gradientUnits="userSpaceOnUse"><stop offset="0" stop-color="#f7b02d"/><stop offset="0.27" stop-color="#f18712"/><stop offset="0.47" stop-color="#ed6c00"/></linearGradient><linearGradient id="linear-gradient-3" x1="135.74" y1="374.84" x2="203.98" y2="293.51" gradientUnits="userSpaceOnUse"><stop offset="0.38" stop-color="#00125e"/><stop offset="0.51" stop-color="#002876"/><stop offset="0.71" stop-color="#004493"/><stop offset="0.88" stop-color="#0055a5"/><stop offset="1" stop-color="#005bac"/></linearGradient><linearGradient id="linear-gradient-4" x1="341.06" y1="374.56" x2="398.51" y2="306.09" gradientUnits="userSpaceOnUse"><stop offset="0.33" stop-color="#00125e"/><stop offset="0.47" stop-color="#002876"/><stop offset="0.68" stop-color="#004493"/><stop offset="0.87" stop-color="#0055a5"/><stop offset="1" stop-color="#005bac"/></linearGradient><linearGradient id="linear-gradient-5" x1="207.84" y1="396.71" x2="272.42" y2="319.74" gradientUnits="userSpaceOnUse"><stop offset="0.44" stop-color="#00125e"/><stop offset="0.8" stop-color="#004494"/><stop offset="1" stop-color="#005bac"/></linearGradient><linearGradient id="linear-gradient-6" x1="279.8" y1="372.12" x2="328.74" y2="313.8" xlink:href="#linear-gradient-3"/><linearGradient id="linear-gradient-7" x1="404.17" y1="365.43" x2="464.35" y2="293.7" gradientUnits="userSpaceOnUse"><stop offset="0.3" stop-color="#00125e"/><stop offset="0.45" stop-color="#002876"/><stop offset="0.67" stop-color="#004493"/><stop offset="0.86" stop-color="#0055a5"/><stop offset="1" stop-color="#005bac"/></linearGradient></defs><title>标志与中英文上下组合(1)</title><path class="cls-1" d="M291.17,403c-7.55-6.57-14.55-6.14-14.55-6.14H123.46v12.28H285c8.15-.11,9.93-3.12,10.06-3.35C292.83,404.3,291.17,403,291.17,403Z"/><path class="cls-2" d="M305.93,396.88h0l-7.46,0-1.15,0c-8.14.15-9.72,3.14-9.84,3.39,2.35,1.61,3.87,2.84,3.87,2.84,8.07,6.47,14.58,6.06,14.58,6.06H471.82V396.88Z"/><path class="cls-3" d="M188.48,362.87l-7.49,19s-19,2.57-32-1.09c-13.19-3.72-17.63-8.45-22.22-18.84-2-4.61-3.21-11.72-3.21-17.54a44.62,44.62,0,0,1,3.63-18.35c2.42-5.44,10.77-17.81,25.68-22.33a58.06,58.06,0,0,1,16.76-2.54c5.3,0,25.66,1.06,43.47-.07l-8.37,21.3c-11.67.88-30.49-.68-33.49-.48-5.76.42-8.83.85-12.7,2.88a21.87,21.87,0,0,0-9.16,8.21c-5.95,9.71-2,19.7.25,22.53s7.79,7.81,19.58,8.54C172.9,364.34,188.48,362.87,188.48,362.87Z"/><path class="cls-4" d="M391.44,362l-.06,19.4s-16.7,1.29-22.71,1.29a53.89,53.89,0,0,1-16.22-2.36,38.66,38.66,0,0,1-13.76-7.74,30.47,30.47,0,0,1-8.94-12.63,46.84,46.84,0,0,1-2.7-16.28c0-7,.84-14.27,3.26-19.88s7.22-16.61,23.7-21.61c10.29-3.13,20.45-1.73,37.92-1.59L391.88,321c-14.34-.26-25-1.7-31.54,2.63-15.93,10.47-10.25,27.68-7.22,31.53,2.28,2.88,8,8,19.22,8.23C376.07,363.44,391.44,362,391.44,362Z"/><path class="cls-5" d="M190.94,382.53l3.74-8.55,22.89-57.79,2.41-6.46c.7-1.91,1.65-4.64,2.91-8.2q9.47.14,13.82.13,7.57,0,14-.13l10,24.75,20,47.59,3.86,8.66c-6.24-.08-10-.12-11.33-.12q-4.52,0-13.28.12-3.18-9.79-8.77-23H224.1q-3.76,10.46-7.7,23-10-.12-12.29-.12C201.39,382.41,197,382.45,190.94,382.53Zm38.2-40.29h16.69q-8-20.89-8.77-23-2.81,8.71-4.81,14.27Z"/><path class="cls-6" d="M292,382.4s.43-29.47.43-39.28-.41-39.62-.41-39.62c6.28.08,24.44,0,24.44,0L315.93,343l.57,39.43-11-.11C303.33,382.29,292,382.4,292,382.4Z"/><path class="cls-7" d="M424.36,382.38s.38-38.86.74-61.51l-23.92.12-.12-21.18s23.86.1,37.41.1l13.26-.05h12.91l7-.07s.13,20.26.13,21.28c-7.65-.43-23.61-.2-23.61-.2-.55,6.86,0,61.51,0,61.51Z"/><path class="cls-8" d="M181.38,461.81V454c.19-4.38.48-8.88.87-13.36l.11-1.22-1.22.1c-4.41.38-9.58.58-15.36.58h-8.59c0-2.86.12-5.65.3-8.3,0-.61.48-3.92.81-6l.09-.5-.56,0c-1.22,0-2.35.06-3.2.06l-1,0-5.18-.2-.51,0,.21,1.28c.37,2.13.55,6.6.57,13.67h-9.43c-5.45-.18-10.35-.37-14.56-.58l-1.24-.05.16,1.21c.39,2.83.68,7.3.86,13.28v7.83a113.55,113.55,0,0,1-.84,12.69l-.21,1.2h8.81l16-.28h.49v7.42c0,5.57-.1,9.26-.3,11l-.12,1.15h9.57l-.11-1.11c-.19-2.48-.39-6.18-.57-11v-7.45l16.5-.06c.57,0,1.26,0,2.12,0,1.48,0,3.07,0,4.12,0h1.23l1.34,0-.24-1.27A93.56,93.56,0,0,1,181.38,461.81ZM148.72,447.4v20.37H133V447.4Zm23.9,0v20.37H157.19V447.4Z"/><path class="cls-8" d="M250.7,488V436.45c0-3,.3-8,.3-8.06l0-.48-.49,0c-.05,0-4.61.47-8.17.47h-44c-2.38,0-6.47-.27-8.13-.38l-.57-.05,0,.48c.37,5.25.37,5.76.36,6.87,0,.23,0,.49,0,.82V488c0,.87-.13,2.73-.39,5.51,0,.16,0,.25,0,.25h0l-.05.47.48,0s5.7-.17,7.12-.23h46.1c.49,0,1.09,0,1.78,0,2.52,0,5.54.12,5.56.12l.49,0-.06-.48S250.7,490.32,250.7,488Zm-8.47-52V487.3h-44V436Z"/><path class="cls-8" d="M212.94,480.25h15.45a103.17,103.17,0,0,1,11.26.57l1.14.13v-8.37l-1.09.06c-1.18.08-2.45.15-3.77.22a27.65,27.65,0,0,1,.32-5l.22-1.3-1.32.11h0c-.33,0-1.54.12-2.92.12a19.61,19.61,0,0,1-2.9-.19l-1.37-.25.17,1.39a38.22,38.22,0,0,1,.28,5.49l-4.21,0v-9.91h5.91c3.35.2,5.79.29,7.06.29h1v-8.33l-1.18.17c-2.75.39-6.13.68-10.05.86h-2.77v-6.39h2.77a93.64,93.64,0,0,1,11.53.58l1.16.14v-8.1l-1.1.07c-2.94.2-6.85.4-11.59.58H214.15c-4.11-.18-7.83-.37-11-.58l-1.11-.07v8l1.13-.08c2.28-.19,6.08-.29,11.27-.29h1.89v6.1H214.4a78.6,78.6,0,0,1-9.77-.57l-1.18-.15V464l1.11-.07c2.51-.18,5.63-.37,9.84-.59h1.89v9.91H212.7c-4.72-.21-8.52-.41-11.64-.6l-1.09-.06v8.51l1.25-.29C202.87,480.43,206.81,480.25,212.94,480.25Z"/><path class="cls-8" d="M279,433.86l.21-.27c2.25-2.83,2.61-3.42,2.59-3.74v-.3l-.27-.08a89.23,89.23,0,0,1-9.6-3.81l-.45-.23-.29,1.16c-3.05,12.62-8.09,23.17-14.95,31.36l-.51.63,5.75,7.67.79-1.26c1.94-3.05,3.55-5.74,4.81-8v24.36a106,106,0,0,1-.57,11.53l-.14,1.15h9.28l-.1-1.12c-.19-2-.29-5.89-.29-11.86V441.73c.14-.28.41-.9.77-1.75l.07-.13c.76-1.76,1.93-4.43,2.54-5.53A4.88,4.88,0,0,1,279,433.86Z"/><path class="cls-8" d="M319.85,486.88v-13.7a27.17,27.17,0,0,1,.26-4.48l.25-1.51-2,.16c-1.65.19-5.08.43-5.65.43h-23.9a30.9,30.9,0,0,1-5.91-.55l-1.42-.3.19,1.42a36.05,36.05,0,0,1,.27,4.54v14c0,1.59,0,4.54-.11,4.84l-.72,1.5,1.68,0s2.76-.05,6.11-.24l4.81,0,2.7,0c6.26,0,14.08-.08,16-.12l8,.2h.16l-.47-1.38A39.33,39.33,0,0,1,319.85,486.88Zm-8.12-.08H289.88l-.05-12.29h21.83Z"/><path class="cls-8" d="M307.74,447.09H292.87a103.45,103.45,0,0,1-11.26-.58l-1.14-.13v7.72h1c1.06,0,3.44-.1,6.7-.29h19.5c5.62.21,9.61.4,12.2.58l1.1.09v-7.79l-1.12.11C317.94,447,313.74,447.09,307.74,447.09Z"/><path class="cls-8" d="M312.11,436.59H306a36.21,36.21,0,0,1,.29-7l.21-1.27-1.36.08c-1.62.07-3.13.11-4.35.11a23.56,23.56,0,0,1-3.63-.19l-1.34-.22.15,1.31a.59.59,0,0,0,0,.13,50.91,50.91,0,0,1,.23,7h-5.94c-2.54,0-6.34-.2-11.29-.58l-1.1-.09v8.39l1.14-.13a102.33,102.33,0,0,1,11.25-.57h22.17a92.62,92.62,0,0,1,11.23.57l1.15.14V435.9l-1.14.12C319.85,436.4,316,436.59,312.11,436.59Z"/><path class="cls-8" d="M308.6,456.7h-16c-2.29,0-6-.19-11-.57l-1.11-.09v7.78l1.13-.1c2.09-.19,5.78-.3,11-.3h16a77.22,77.22,0,0,1,10.93.58l1.2.19v-7.91l-1.18.14C318.05,456.6,314.37,456.7,308.6,456.7Z"/><path class="cls-8" d="M368.84,485l-4.33,0A60.64,60.64,0,0,1,354,483h6l-.17-1.17a54,54,0,0,1-.28-6.56v-3.63H368v2.47c0,6.13-.17,8.43-.17,8.45l0,.44h7.5V471.59h9l0,3.51c0,.17-.13.59-2,.59-.5,0-1.12,0-1.84-.09l-1.94-.37.81,2.22a19.92,19.92,0,0,1,1,5.94v.39l.39,0h.15c.42,0,1.55.09,2,.06,7.73-.68,8.7-2.18,8.82-2.48l0-.14c.3-.75.79-2,.54-22.05v-9.92a22.3,22.3,0,0,1,.27-4.7l.38-1.53-1.57.26a39.64,39.64,0,0,1-5.65.27h-6.91c4.71-3.21,8.2-7.09,12.22-11.57l0,0,1.63-1.81,1.77-1.93-2.76.22c-2.39.18-3.57.28-6.86.28h-20a61.94,61.94,0,0,1-9.17-.58l-1.19-.19v8.2l1.16-.15c1.5-.18,4.6-.27,9.2-.27h1.14l-5.3,4.31-.13.12,1.42.71a14.89,14.89,0,0,1,4.09,3h-7.43c-1.51,0-3.21-.1-5.24-.3h-1.62v1.73a40.07,40.07,0,0,1,.31,4.26v26.24c0,.93-.22,5.1-.29,6.38a29.22,29.22,0,0,1-6.41-3.14V456.29c0-1.54.38-5.53.95-10.16l.07-.49-.5,0c-1.95.09-4.34.14-6.94.14-2.79,0-5.72-.06-8.26-.16l-1.07,0v8.64l1.14-.13c1.55-.17,3.91-.27,7-.28V479c-1.55.93-4.55,2.84-9.16,5.86l-1.05.69,6.85,6.84.08.09.73-.85c4.46-5.26,6-5.72,6.2-5.75.39,0,1.37.26,5.28,1.63a43.61,43.61,0,0,0,11.52,4.18c3.56.4,9.47.69,17.58.88,3.76.1,7.25.14,10.36.14s5.72,0,7.78-.14l1.68-.08,0-.37a19.69,19.69,0,0,1,2-6.86L399,483l-2.53.34A201.38,201.38,0,0,1,368.84,485Zm-9.53-19.85v-4.35H368v4.35Zm0-10.78v-4.07H368v4.07Zm8.89-18.64h9.31a32.38,32.38,0,0,1-5,4A26.68,26.68,0,0,0,368.2,435.74Zm16.46,25.07v4.35h-9.32v-4.35Zm-9.32-6.43v-4.07h9v4.07Z"/><path class="cls-8" d="M344.93,443.54l-.08-1.22c-.07-2.4-.18-8.31.11-11.34l.21-1.27-1.31.07c-.51,0-1.83.08-3.22.08h-1.71a12.89,12.89,0,0,1-1.73-.08l-1.28-.07.09,1c.19,2.71-.29,12.09-.29,12.19l0,.42,9.11.18Z"/><path class="cls-8" d="M444.15,448.58c-5.89,0-9.47-.09-10.94-.28l-1.16-.15V456l1.15-.12c1.68-.19,5.38-.28,10.95-.28h9.05c6.33,0,7.85.12,8.55.26l1.23.26v-8l-1.18.16a72.48,72.48,0,0,1-8.6.28Z"/><path class="cls-8" d="M428.31,434.27l-1.33-.15.15,1.51a56.54,56.54,0,0,1,.25,5.78,35.29,35.29,0,0,1-.32,5.59l-.09.49,8.6.05h.11l-.12-1.15a41.16,41.16,0,0,1-.27-4.54h26.1c0,1.48-.11,2.81-.27,4.85l-.11,1.12h8.81l-.14-1.15a40.7,40.7,0,0,1-.47-5.58v-.26c0-1.49,0-3.34.19-5.46l.1-1.26-1.25.15a46.13,46.13,0,0,1-5.42.28h-9.44l.29-7.72-.45,0-3.9.08h-.47l-4.14,0h-.43l.08,1.85c0,1,.08,1.69.11,2.31.06,1.2.11,2,.11,3.49h-9.76C432.75,434.55,430.62,434.46,428.31,434.27Z"/><path class="cls-8" d="M471,480.65a20.23,20.23,0,0,1-6.07-3.88l-1.5-1.28-.19,2c-.48,5.2-1.85,7.85-4,7.85h-.25a3.92,3.92,0,0,1-2.61-.75c-.19-.21-.24-.44-.24-1.18V467.22h10.46c.34,0,.92,0,1.72.07h.08l.44,0V460l-.57.07c-.32,0-1.74.1-7.75.15H431.34c-1.77-.05-2.78-.13-3.15-.16l-.45-.06v6.95l0,.38h.72c.32,0,.92-.06,1.25-.07l.41,0h6.65c-.15,11.6-6,17.51-18,18l-3,.13,2.48,1.74a24.57,24.57,0,0,1,5.4,5.43l.76.77.62-.24c8.05-3.05,12.8-6.07,15.4-9.78,2.11-3.66,3.41-9.08,3.87-16.1h4.13V486c.07,2.4.22,3.57,1.26,4.71s2.87,1.82,5.71,1.95c.11,0,.53,0,1.27,0l5.63,0c5-.27,7.92-3.7,9.31-10.77l.18-.9Z"/><path class="cls-8" d="M427.1,469.4c0-5.24-2-10.69-5.79-16.22.43-1.67.79-3.25,1.14-4.78.51-2.33,1.05-4.74,1.86-7.29.55-1.88,1.13-3.69,1.72-5.39l.46-1.29.16-.44c.08-.21.14-.37.2-.55a16.62,16.62,0,0,1,.8-2l1.09-2.54-2,.4a42.82,42.82,0,0,1-7.82.54H412.9a40.28,40.28,0,0,1-7.67-.56l-1.6-.32.4,1.58a29.25,29.25,0,0,1,.54,6.46v48.39c0,2.67-.09,5.09-.28,7.19l-.1,1.12h8.67l-.1-1.12c-.2-2-.29-4.46-.29-7.48V472.06l0,.05a13.15,13.15,0,0,1,1.63,7.45l-.08,1.22,1.22-.14C422.9,479.85,426.65,476.28,427.1,469.4Zm-14.63-33.08h5.65c-1.41,4.32-2.37,8.06-3.15,11.06l-.13.48c-.65,2.51-1.17,4.49-1.75,6l-.21.6.45.46a18.13,18.13,0,0,1,5.6,12.49,3.91,3.91,0,0,1-.7,3,3.42,3.42,0,0,1-2.93,1.34,10.76,10.76,0,0,1-2.35-.3l-.48-.1Z"/></svg>